<?xml version="1.0" encoding="UTF-8" standalone="no"?>
<svg xmlns="http://www.w3.org/2000/svg" viewBox="0 0 100 100" width="100" height="100">
  <!-- Dino silhouette for clench runner game -->
  <style>
    .dino {
      fill: #333333;
    }
  </style>
  
  <!-- T-Rex silhouette in jumping/running pose -->
  <g class="dino">
    <!-- Main body -->
    <path d="M70,45 C70,40 65,38 60,38 C55,38 50,40 45,40 C40,40 35,38 30,38 
             C25,38 20,40 20,45 C20,50 25,55 30,55 C35,55 40,53 45,53 
             C50,53 55,55 60,55 C65,55 70,50 70,45 Z" />
    
    <!-- Head -->
    <path d="M70,45 C70,40 75,35 80,35 C85,35 90,38 90,42 C90,46 85,50 80,50 
             C75,50 70,50 70,45 Z" />
    
    <!-- Tail -->
    <path d="M20,45 C20,40 15,35 10,35 C5,35 2,38 2,42 C2,46 5,50 10,50 
             C15,50 20,50 20,45 Z" />
    
    <!-- Front leg (clenched) -->
    <path d="M55,55 C55,60 53,65 50,68 C47,71 43,73 40,73 C37,73 35,71 35,68 
             C35,65 37,63 40,63 C43,63 47,61 50,58 C53,55 55,55 55,55 Z" />
    
    <!-- Back leg (extended for running) -->
    <path d="M35,55 C35,60 30,65 25,73 C20,81 15,88 10,88 C5,88 0,83 0,78 
             C0,73 5,68 10,68 C15,68 20,63 25,58 C30,53 35,55 35,55 Z" />
  </g>
</svg>
